<?xml version="1.0" encoding="UTF-8"?>
<svg id="Layer_2" data-name="Layer 2" xmlns="http://www.w3.org/2000/svg" viewBox="0 0 76.7 78.75">
  <g id="Layer_1-2" data-name="Layer 1">
    <path d="M39.37,78.75c-8.16,0-15.19-1.56-21.09-4.68-5.9-3.12-10.42-7.62-13.57-13.5C1.57,54.69,0,47.62,0,39.37s1.58-14.78,4.75-20.68c3.17-5.9,7.64-10.49,13.43-13.77C23.97,1.64,30.81,0,38.69,0c5.79,0,11.02.9,15.69,2.7,4.67,1.8,8.67,4.4,12,7.79,3.33,3.4,5.88,7.51,7.66,12.34,1.78,4.83,2.67,10.3,2.67,16.41v6.29H8.48v-15.04h55.37l-12.85,3.14c0-3.1-.46-5.71-1.37-7.83-.91-2.12-2.26-3.74-4.03-4.85-1.78-1.12-3.99-1.67-6.63-1.67s-4.85.56-6.63,1.67c-1.78,1.12-3.12,2.73-4.03,4.85-.91,2.12-1.37,4.73-1.37,7.83v10.94c0,3.37.54,6.16,1.61,8.37,1.07,2.21,2.59,3.85,4.55,4.92,1.96,1.07,4.24,1.61,6.84,1.61,1.87,0,3.57-.26,5.09-.79,1.53-.52,2.84-1.27,3.93-2.26,1.09-.98,1.91-2.18,2.46-3.59l24.2,3.55c-1.28,4.56-3.53,8.51-6.77,11.86-3.24,3.35-7.33,5.94-12.27,7.76-4.95,1.82-10.68,2.73-17.19,2.73Z"/>
  </g>
</svg>