<?xml version="1.0" encoding="UTF-8"?>
<svg id="Layer_2" data-name="Layer 2" xmlns="http://www.w3.org/2000/svg" viewBox="0 0 79.02 78.75">
  <g id="Layer_1-2" data-name="Layer 1">
    <path d="M39.58,78.75c-8.29,0-15.4-1.65-21.33-4.96-5.92-3.3-10.45-7.91-13.57-13.81C1.56,54.08,0,47.21,0,39.37s1.56-14.71,4.68-20.61c3.12-5.9,7.64-10.5,13.57-13.81C24.18,1.65,31.28,0,39.58,0s15.38,1.65,21.26,4.96c5.88,3.3,10.38,7.91,13.5,13.81,3.12,5.9,4.68,12.77,4.68,20.61s-1.56,14.71-4.68,20.61c-3.12,5.9-7.62,10.5-13.5,13.81-5.88,3.3-12.97,4.96-21.26,4.96ZM39.58,58.24c2.37,0,4.41-.75,6.12-2.26,1.71-1.5,3.02-3.68,3.93-6.53.91-2.85,1.37-6.25,1.37-10.22s-.46-7.41-1.37-10.19c-.91-2.78-2.22-4.9-3.93-6.36-1.71-1.46-3.75-2.19-6.12-2.19s-4.49.73-6.22,2.19c-1.73,1.46-3.05,3.58-3.96,6.36-.91,2.78-1.37,6.18-1.37,10.19s.46,7.37,1.37,10.22c.91,2.85,2.23,5.02,3.96,6.53,1.73,1.5,3.8,2.26,6.22,2.26Z"/>
  </g>
</svg>