<?xml version="1.0" encoding="UTF-8"?>
<svg id="Layer_2" data-name="Layer 2" xmlns="http://www.w3.org/2000/svg" viewBox="0 0 87.36 105.55">
  <g id="Layer_1-2" data-name="Layer 1">
    <path d="M6.22,102.95l6.02-19.55,3.55.96c3.01.77,5.6.99,7.79.65s3.78-1.08,4.79-2.22c1-1.14,1.23-2.51.68-4.1l-.75-2.19L0,0h28.85l9.91,34.86c1.46,5.24,2.59,10.52,3.38,15.83.8,5.31,1.79,11.15,2.97,17.53h-4.99c1.18-6.38,2.39-12.25,3.62-17.6,1.23-5.35,2.64-10.61,4.24-15.76L58.93,0h28.44l-31.51,83.4c-1.55,4.15-3.65,7.9-6.29,11.25-2.64,3.35-6.07,6-10.29,7.96-4.22,1.96-9.54,2.94-15.96,2.94-3.14,0-6.24-.23-9.3-.68-3.05-.46-5.65-1.09-7.79-1.91Z"/>
  </g>
</svg>