<?xml version="1.0" encoding="UTF-8"?>
<svg id="Layer_2" data-name="Layer 2" xmlns="http://www.w3.org/2000/svg" viewBox="0 0 79.16 102.81">
  <g id="Layer_1-2" data-name="Layer 1">
    <path d="M30.08,102.81c-5.42,0-10.42-1.42-15-4.27-4.58-2.85-8.24-7.17-10.97-12.95-2.73-5.79-4.1-13.08-4.1-21.87,0-9.25,1.44-16.76,4.31-22.52,2.87-5.76,6.58-9.99,11.14-12.68,4.56-2.69,9.34-4.03,14.35-4.03,3.78,0,7.1.65,9.95,1.95,2.85,1.3,5.24,3.04,7.18,5.23,1.94,2.19,3.38,4.58,4.34,7.18h.41V0h27.48v101.85h-27.21v-12.58h-.68c-1.05,2.6-2.55,4.91-4.51,6.94-1.96,2.03-4.33,3.63-7.11,4.82-2.78,1.18-5.97,1.78-9.57,1.78ZM40.19,81.76c2.51,0,4.67-.74,6.49-2.22,1.82-1.48,3.22-3.57,4.2-6.25.98-2.69,1.47-5.88,1.47-9.57s-.49-7.03-1.47-9.74c-.98-2.71-2.38-4.8-4.2-6.25-1.82-1.46-3.99-2.19-6.49-2.19s-4.65.73-6.43,2.19c-1.78,1.46-3.13,3.54-4.07,6.25-.93,2.71-1.4,5.96-1.4,9.74s.47,6.96,1.4,9.67c.93,2.71,2.29,4.79,4.07,6.22,1.78,1.44,3.92,2.15,6.43,2.15Z"/>
  </g>
</svg>