<?xml version="1.0" encoding="UTF-8"?>
<svg id="Layer_2" data-name="Layer 2" xmlns="http://www.w3.org/2000/svg" viewBox="0 0 95.7 104.59">
  <g id="Layer_1-2" data-name="Layer 1">
    <path d="M49.9,104.59c-9.89,0-18.58-2.11-26.08-6.32-7.5-4.21-13.34-10.22-17.53-18.01C2.1,72.46,0,63.21,0,52.5s2.24-20.72,6.73-28.54c4.49-7.82,10.49-13.76,18.01-17.84C32.27,2.04,40.6,0,49.77,0c6.02,0,11.61.85,16.78,2.56,5.17,1.71,9.76,4.14,13.77,7.28,4.01,3.14,7.23,6.85,9.67,11.11,2.44,4.26,3.93,8.94,4.48,14.05h-27.89c-.41-1.73-1.08-3.28-2.02-4.65-.93-1.37-2.1-2.52-3.49-3.45-1.39-.93-2.99-1.64-4.78-2.12-1.8-.48-3.79-.72-5.98-.72-4.6,0-8.54,1.11-11.83,3.32-3.28,2.21-5.78,5.41-7.49,9.6-1.71,4.19-2.56,9.23-2.56,15.11s.82,11.07,2.46,15.31,4.07,7.49,7.28,9.74,7.21,3.38,12,3.38c4.19,0,7.69-.62,10.49-1.85,2.8-1.23,4.9-2.97,6.29-5.23,1.39-2.26,2.08-4.91,2.08-7.96l4.79.55h-23.24v-19.69h45.12v14.08c0,9.3-1.96,17.24-5.88,23.82-3.92,6.59-9.33,11.62-16.24,15.11s-14.8,5.23-23.69,5.23Z"/>
  </g>
</svg>