<svg width="28" height="28" viewBox="0 0 28 28" fill="none" xmlns="http://www.w3.org/2000/svg">
<path d="M13.2168 18.7063L12.1047 21.2533C11.6777 22.2323 10.3228 22.2323 9.89475 21.2533L8.78275 18.7063C7.79275 16.4393 6.01175 14.6353 3.78975 13.6493L0.72975 12.2913C-0.24325 11.8593 -0.24325 10.4432 0.72975 10.0112L3.69475 8.69525C5.97375 7.68325 7.78675 5.81225 8.75975 3.46925L9.88575 0.75525C10.3037 -0.25175 11.6958 -0.25175 12.1138 0.75525L13.2397 3.46925C14.2127 5.81325 16.0258 7.68425 18.3048 8.69525L21.2698 10.0112C22.2428 10.4432 22.2428 11.8593 21.2698 12.2913L18.2087 13.6502C15.9877 14.6362 14.2058 16.4403 13.2168 18.7063Z" fill="white"/>
<path d="M23.4808 26.7952L23.1418 27.5722C22.8938 28.1412 22.1057 28.1412 21.8577 27.5722L21.5187 26.7952C20.9147 25.4102 19.8258 24.3072 18.4678 23.7032L17.4237 23.2392C16.8587 22.9882 16.8587 22.1672 17.4237 21.9162L18.4098 21.4782C19.8028 20.8592 20.9107 19.7152 21.5047 18.2832L21.8528 17.4432C22.0958 16.8582 22.9047 16.8582 23.1467 17.4432L23.4948 18.2832C24.0888 19.7152 25.1968 20.8592 26.5898 21.4782L27.5758 21.9162C28.1408 22.1672 28.1408 22.9882 27.5758 23.2392L26.5317 23.7032C25.1737 24.3072 24.0848 25.4102 23.4808 26.7952Z" fill="white"/>
</svg>
